<svg width="23" height="23" viewBox="0 0 23 23" fill="none" xmlns="http://www.w3.org/2000/svg">
<g clip-path="url(#clip0_245_17)">
<path d="M11.4986 0C5.14913 0 6.63618e-06 5.16925 6.63618e-06 11.546C-0.00258751 13.9661 0.755434 16.3258 2.16694 18.2917C3.57844 20.2575 5.57205 21.73 7.866 22.5012C8.441 22.6076 8.65088 22.2511 8.65088 21.9449C8.65088 21.6703 8.64082 20.9444 8.63507 19.9812C5.43663 20.6784 4.761 18.4331 4.761 18.4331C4.23919 17.0991 3.4845 16.744 3.4845 16.744C2.43944 16.0281 3.56213 16.0425 3.56213 16.0425C4.71644 16.1244 5.32307 17.2327 5.32307 17.2327C6.34944 18.9966 8.0155 18.4877 8.671 18.1916C8.7745 17.4455 9.07207 16.9366 9.40125 16.6477C6.84825 16.3559 4.163 15.3654 4.163 10.9422C4.163 9.68156 4.6115 8.65087 5.3475 7.843C5.22819 7.55119 4.83432 6.37675 5.45963 4.78831C5.45963 4.78831 6.42563 4.47781 8.62213 5.97137C9.56045 5.71494 10.5287 5.58442 11.5014 5.58325C12.4742 5.58518 13.4424 5.71618 14.3808 5.97281C16.5758 4.47925 17.5404 4.78975 17.5404 4.78975C18.1671 6.37962 17.7733 7.55262 17.6554 7.84444C18.3928 8.65231 18.837 9.683 18.837 10.9437C18.837 15.3784 16.1489 16.3544 13.5873 16.6405C13.9998 16.997 14.3678 17.7014 14.3678 18.7781C14.3678 20.3219 14.3534 21.5668 14.3534 21.9449C14.3534 22.2539 14.5604 22.6133 15.1441 22.4998C17.4358 21.7268 19.4269 20.2537 20.8365 18.2883C22.246 16.3229 23.0028 13.9646 23 11.546C23 5.16925 17.8509 0 11.4986 0Z" fill="url(#paint0_linear_245_17)"/>
</g>
<defs>
<linearGradient id="paint0_linear_245_17" x1="11.5" y1="0" x2="11.5" y2="22.5212" gradientUnits="userSpaceOnUse">
<stop stop-color="#D676D7"/>
<stop offset="1" stop-color="#856DEC"/>
</linearGradient>
<clipPath id="clip0_245_17">
<rect width="23" height="23" fill="white"/>
</clipPath>
</defs>
</svg>
