<svg width="25" height="25" viewBox="0 0 25 25" fill="none" xmlns="http://www.w3.org/2000/svg">
<path d="M2.0835 15.2815C2.0835 15.834 2.303 16.3639 2.6937 16.7546C3.0844 17.1453 3.6143 17.3648 4.16684 17.3648C4.71937 17.3648 5.24928 17.1453 5.63998 16.7546C6.03068 16.3639 6.25017 15.834 6.25017 15.2815V13.1981H4.16684C3.6143 13.1981 3.0844 13.4176 2.6937 13.8083C2.303 14.199 2.0835 14.7289 2.0835 15.2815ZM15.2502 11.8023C15.8027 11.8023 16.3326 11.5828 16.7233 11.1921C17.114 10.8014 17.3335 10.2715 17.3335 9.71891V4.16683C17.3335 3.61429 17.114 3.08439 16.7233 2.69369C16.3326 2.30299 15.8027 2.0835 15.2502 2.0835C14.6977 2.0835 14.1678 2.30299 13.7771 2.69369C13.3864 3.08439 13.1669 3.61429 13.1669 4.16683V9.71891C13.1669 9.99426 13.2214 10.2669 13.3274 10.5211C13.4334 10.7752 13.5887 11.0058 13.7844 11.1995C13.9801 11.3932 14.2122 11.5463 14.4674 11.6497C14.7225 11.7532 14.9957 11.805 15.271 11.8023H15.2502ZM22.8752 9.71891C22.8752 9.16638 22.6557 8.63647 22.265 8.24577C21.8743 7.85507 21.3444 7.63558 20.7919 7.63558C20.2393 7.63558 19.7094 7.85507 19.3187 8.24577C18.928 8.63647 18.7085 9.16638 18.7085 9.71891V11.8023H20.7919C21.0689 11.8078 21.3443 11.758 21.6019 11.6558C21.8595 11.5536 22.0941 11.401 22.292 11.207C22.4899 11.013 22.6471 10.7815 22.7544 10.526C22.8617 10.2704 22.9169 9.99604 22.9169 9.71891H22.8752ZM9.72934 13.1981C9.1768 13.1981 8.6469 13.4176 8.2562 13.8083C7.8655 14.199 7.646 14.7289 7.646 15.2815V20.8335C7.646 21.3861 7.8655 21.916 8.2562 22.3067C8.6469 22.6974 9.1768 22.9169 9.72934 22.9169C10.2819 22.9169 10.8118 22.6974 11.2025 22.3067C11.5932 21.916 11.8127 21.3861 11.8127 20.8335V15.2815C11.8127 14.7289 11.5932 14.199 11.2025 13.8083C10.8118 13.4176 10.2819 13.1981 9.72934 13.1981ZM15.271 18.7502H13.1877V20.8335C13.1877 21.2456 13.3099 21.6484 13.5388 21.991C13.7677 22.3336 14.0931 22.6006 14.4738 22.7583C14.8545 22.916 15.2733 22.9572 15.6775 22.8768C16.0816 22.7965 16.4528 22.598 16.7442 22.3067C17.0355 22.0153 17.234 21.6441 17.3143 21.24C17.3947 20.8358 17.3535 20.417 17.1958 20.0363C17.0381 19.6556 16.7711 19.3302 16.4285 19.1013C16.0859 18.8724 15.6831 18.7502 15.271 18.7502ZM20.8335 13.1981H15.271C14.7185 13.1981 14.1886 13.4176 13.7979 13.8083C13.4072 14.199 13.1877 14.7289 13.1877 15.2815C13.1877 15.834 13.4072 16.3639 13.7979 16.7546C14.1886 17.1453 14.7185 17.3648 15.271 17.3648H20.8335C21.3861 17.3648 21.916 17.1453 22.3067 16.7546C22.6974 16.3639 22.9169 15.834 22.9169 15.2815C22.9169 14.7289 22.6974 14.199 22.3067 13.8083C21.916 13.4176 21.3861 13.1981 20.8335 13.1981ZM9.72934 7.63558H4.16684C3.6143 7.63558 3.0844 7.85507 2.6937 8.24577C2.303 8.63647 2.0835 9.16638 2.0835 9.71891C2.0835 10.2715 2.303 10.8014 2.6937 11.1921C3.0844 11.5828 3.6143 11.8023 4.16684 11.8023H9.72934C10.2819 11.8023 10.8118 11.5828 11.2025 11.1921C11.5932 10.8014 11.8127 10.2715 11.8127 9.71891C11.8127 9.16638 11.5932 8.63647 11.2025 8.24577C10.8118 7.85507 10.2819 7.63558 9.72934 7.63558ZM9.72934 2.0835C9.1768 2.0835 8.6469 2.30299 8.2562 2.69369C7.8655 3.08439 7.646 3.61429 7.646 4.16683C7.646 4.71936 7.8655 5.24927 8.2562 5.63997C8.6469 6.03067 9.1768 6.25016 9.72934 6.25016H11.8127V4.16683C11.8127 3.61429 11.5932 3.08439 11.2025 2.69369C10.8118 2.30299 10.2819 2.0835 9.72934 2.0835Z" fill="url(#paint0_linear_245_15)"/>
<defs>
<linearGradient id="paint0_linear_245_15" x1="12.5002" y1="2.0835" x2="12.5002" y2="22.9169" gradientUnits="userSpaceOnUse">
<stop stop-color="#EB6FCF"/>
<stop offset="1" stop-color="#F84877"/>
</linearGradient>
</defs>
</svg>
